# xmcd
#
# Track frame offsets: 
#        182
#        16742
#        40987
#        59365
#
# Disc length: 1020 seconds
#
# Revision: 1
# Processed by: cddbd v1.5.2PL0 Copyright (c) Steve Scherf et al.
# Submitted via: ExactAudioCopy v0.90b4
#
DISCID=2903fa04
DTITLE=ZZ Top - What's Up With That (Single)
DYEAR=1996
DGENRE=Bluegrass
TTITLE0=What's Up With That (Radio Edit)
TTITLE1=What's Up With That (Album Version)
TTITLE2=Stop Breakin' Down Blues (Live)
TTITLE3=Nasty Dog And Funky Kings (Live)
EXTD=
EXTT0=
EXTT1=
EXTT2=
EXTT3=
PLAYORDER=
